<svg xmlns="http://www.w3.org/2000/svg" viewBox="0 0 119.67 119.61"><defs><style>.a{fill:#fefefe;}</style></defs><path d="M1019.81,539.73c-.25,33.31-26.61,60.51-61,60.07a59.81,59.81,0,1,1,43.42-102C1013.83,509.39,1019.53,523.63,1019.81,539.73Z" transform="translate(-900.14 -480.2)"/><path class="a" d="M943,536.17h42.78a3.83,3.83,0,1,1,.15,7.65c-5.5,0-11,0-16.51,0h-26.2a1.7,1.7,0,0,0,.68.94q7.4,7.43,14.79,14.83a3.83,3.83,0,0,1,1.08,4,3.69,3.69,0,0,1-3.33,2.65,3.27,3.27,0,0,1-2.53-.8c-.4-.33-.78-.69-1.15-1.05-7-7-14-14-21-21-2.32-2.28-2.32-4.64,0-6.94,7.08-7,14.08-14,21.11-21,1.06-1.07,2.16-2,3.84-1.66a3.58,3.58,0,0,1,3.07,2.63,3.7,3.7,0,0,1-1.09,3.9q-7.32,7.3-14.61,14.67C943.81,535.34,943.52,535.65,943,536.17Z" transform="translate(-900.14 -480.2)"/></svg>