<svg xmlns="http://www.w3.org/2000/svg" viewBox="0 0 119.67 119.61"><defs><style>.a{fill:#fefefe;}</style></defs><path d="M900.14,540.27c.25-33.3,26.61-60.5,61-60.07a59.81,59.81,0,1,1-43.42,102.05C906.12,570.62,900.41,556.38,900.14,540.27Z" transform="translate(-900.14 -480.2)"/><path class="a" d="M976.91,543.83H934.13a3.83,3.83,0,1,1-.15-7.66h42.71a1.73,1.73,0,0,0-.68-.95q-7.38-7.41-14.79-14.82a3.83,3.83,0,0,1-1.08-4,3.73,3.73,0,0,1,3.34-2.66,3.33,3.33,0,0,1,2.53.81c.4.33.77.68,1.14,1.05,7,7,14,14,21,20.95,2.32,2.29,2.33,4.65,0,7-7.09,7-14.09,14-21.12,21-1.06,1.06-2.16,1.94-3.83,1.66a3.6,3.6,0,0,1-3.08-2.63,3.7,3.7,0,0,1,1.09-3.9q7.34-7.32,14.61-14.67C976.13,544.67,976.42,544.35,976.91,543.83Z" transform="translate(-900.14 -480.2)"/></svg>