<svg xmlns="http://www.w3.org/2000/svg" viewBox="0 0 1187.61 1153.44"><defs><style>.a{fill:#010101;}.b{fill:#fff;}</style></defs><path class="a" d="M1277.64,852.08c-93.14,3.55-183.91,9.65-274.63,16.51-56.82,4.29-113.55,9.65-170.37,13.86-31.35,2.32-62.33-2-91-16.29-36.56-18.22-56-54.23-52.17-94.93,2.55-27.37,11.8-52.52,24.42-76.61a12,12,0,0,0,1-9.87Q623.47,378.06,532.3,71.29c-1.32-4.43-3.23-5.48-7.57-5.46q-54.24.27-108.48.08a49.84,49.84,0,0,1-49-39.36c-4.83-23.18,6.89-46,28.72-55.87a50,50,0,0,1,20.91-4.17c49.83,0,99.65-.16,149.48.05C591-33.34,608.81-19.61,615.87,4c12.77,42.77,25.56,85.53,38.07,128.38,1.5,5.15,3.52,6.89,9.06,6.89q417.93-.24,835.87-.16c6.52,0,13,.21,19.3,2.08,23.92,7.1,39.3,30.6,34.88,55.28-6.82,38-14.46,75.91-21.77,113.86l-58.35,302.74c-1.23,6.37-2.39,12.77-3.74,19.12-4.76,22.32-20.86,37.43-43.43,40.26-37,4.63-74.09,9-111.13,13.48q-77.16,9.36-154.29,18.73-84.85,10.26-169.7,20.43-84.58,10.23-169.17,20.58-21.83,2.66-43.66,5.22c-1.91.22-3.46.32-4.24,2.57-3,8.52-5.56,17.08-6,26.2-.4,8.15,3,13.67,10.43,17,10.21,4.58,21.06,6.05,32,7.18,16.06,1.67,31.94-.85,47.85-2.22,71.88-6.18,143.78-12,215.76-16.85,81.8-5.55,163.63-10.48,245.61-12.36,31.66-.72,63.31-.87,95,.68,22.59,1.1,39.47,19.1,38.46,40.88s-19.27,38.54-41.82,37.47C1365.69,849.3,1320.56,850.76,1277.64,852.08Z" transform="translate(-366.19 33.56)"/><path class="a" d="M766.7,921.27a99.31,99.31,0,1,1-99.48,99A99.38,99.38,0,0,1,766.7,921.27Z" transform="translate(-366.19 33.56)"/><path class="a" d="M1331.56,921.28a99.3,99.3,0,1,1-99.36,99.16A99.38,99.38,0,0,1,1331.56,921.28Z" transform="translate(-366.19 33.56)"/><path class="b" d="M809,238.51c38.8,0,77.61.06,116.41-.08,4.32,0,6,.79,5.93,5.63q-.3,74.44,0,148.89c0,4-.8,5.37-5.12,5.36q-93.93-.22-187.86,0c-3.78,0-5.42-1-6.54-4.77q-22.08-75-44.61-149.8c-1.27-4.21-.64-5.32,3.92-5.3C730.36,238.58,769.66,238.51,809,238.51Z" transform="translate(-366.19 33.56)"/><path class="b" d="M1080.55,445.34c32,0,64,.07,95.94-.09,4.37,0,6,.86,6,5.68q-.29,72.7,0,145.4c0,4.08-.87,5.66-5.26,6.18Q1096,612.05,1015,622c-10.74,1.3-21.5,2.5-32.22,4-3.58.5-4.55-.58-4.55-4.13q.13-86,0-171.89c0-3.88,1.32-4.71,4.91-4.69C1015.6,445.39,1048.07,445.34,1080.55,445.34Z" transform="translate(-366.19 33.56)"/><path class="b" d="M1080,398.21c-32.16,0-64.32-.08-96.48.09-4.15,0-5.31-1.1-5.3-5.28q.22-74.73,0-149.47c0-3.82.9-5.14,5-5.13q97,.2,194,0c4.18,0,5.29,1.21,5.28,5.34q-.2,74.48,0,149c0,4.31-1,5.62-5.49,5.59C1144.62,398.11,1112.3,398.21,1080,398.21Z" transform="translate(-366.19 33.56)"/><path class="b" d="M1336.71,238.51c34,0,68,.08,102-.1,4.45,0,5.17,1.14,4.35,5.34q-14.7,75.26-29,150.58c-.6,3.18-2,3.94-5,3.93q-87.71-.11-175.42,0c-3.34,0-4.22-1.08-4.22-4.27q.12-75.72,0-151.43c0-4,1.91-4.11,4.91-4.11Q1285.49,238.56,1336.71,238.51Z" transform="translate(-366.19 33.56)"/><path class="b" d="M931.19,539.12c0,29.32-.08,58.64.09,88,0,4-1,5.39-5.08,5.87q-57.06,6.64-114.08,13.76c-3.78.47-5.16-.57-6.21-4.14q-28.41-96-57.14-192c-1.32-4.41-.51-5.34,3.94-5.33q86.71.17,173.42,0c4.35,0,5.16,1.44,5.14,5.42C931.12,480.14,931.19,509.63,931.19,539.12Z" transform="translate(-366.19 33.56)"/><path class="b" d="M1316.86,445.34c27.16,0,54.32.07,81.48-.08,4.2,0,5.79.38,4.8,5.41q-12.11,61-23.57,122.15c-.74,3.9-2.11,5.49-6.18,6q-70,8.26-139.89,16.93c-3,.38-4.14-.19-4.13-3.48q.12-71.47,0-142.95c0-4.14,2.18-4,5-4Q1275.63,445.37,1316.86,445.34Z" transform="translate(-366.19 33.56)"/></svg>